<?xml version="1.0" standalone="no"?>
<!DOCTYPE svg PUBLIC "-//W3C//DTD SVG 20010904//EN"
 "http://www.w3.org/TR/2001/REC-SVG-20010904/DTD/svg10.dtd">
<svg version="1.0" xmlns="http://www.w3.org/2000/svg"
 width="512.000000pt" height="512.000000pt" viewBox="0 0 512.000000 512.000000"
 preserveAspectRatio="xMidYMid meet">
<metadata>
Created by potrace 1.11, written by Peter Selinger 2001-2013
</metadata>
<g transform="translate(0.000000,512.000000) scale(0.100000,-0.100000)"
fill="#000000" stroke="none">
<path d="M1690 3705 c-192 -27 -481 -116 -635 -195 -126 -65 -293 -182 -365
-256 l-55 -56 40 19 c22 11 117 39 210 62 233 56 376 65 640 39 286 -29 412
-66 692 -207 l218 -110 159 -138 c152 -131 220 -209 209 -240 -13 -34 85 -153
125 -153 13 0 45 15 71 34 26 19 80 48 121 64 68 27 81 29 135 21 169 -23 238
-108 240 -299 0 -45 0 -45 40 -50 123 -17 235 -164 235 -309 l0 -68 58 -31
c70 -38 87 -55 107 -111 24 -69 20 -114 -15 -151 -57 -61 -88 -227 -60 -329 6
-22 30 -64 55 -94 86 -106 186 -144 352 -134 73 4 98 2 150 -16 34 -12 65 -19
68 -15 3 3 19 54 36 112 18 68 55 159 99 247 39 77 70 151 70 164 0 30 -28
145 -40 167 -6 10 -10 23 -10 30 0 11 -14 45 -64 153 -13 28 -30 66 -39 85 -9
19 -32 71 -51 116 -45 108 -173 325 -265 453 -67 92 -244 300 -270 315 -5 4
-56 16 -113 27 -106 22 -191 58 -246 104 -63 53 -137 174 -162 265 -21 76 -29
90 -75 135 -67 65 -101 83 -123 67 -34 -24 -41 -23 -105 17 -35 23 -71 39 -79
36 -8 -3 -61 17 -119 44 -389 184 -815 248 -1239 186z m2691 -2170 c56 -20 96
-59 110 -106 11 -34 9 -41 -29 -105 -50 -87 -69 -103 -163 -143 -73 -31 -81
-32 -158 -26 -75 7 -85 11 -141 52 -52 39 -60 49 -60 78 0 83 97 205 195 244
62 25 183 28 246 6z"/>
</g>
</svg>
